<?xml version="1.0" encoding="UTF-8" standalone="no"?>
<!-- Created with Inkscape (http://www.inkscape.org/) -->

<svg
   xmlns:dc="http://purl.org/dc/elements/1.1/"
   xmlns:cc="http://creativecommons.org/ns#"
   xmlns:rdf="http://www.w3.org/1999/02/22-rdf-syntax-ns#"
   xmlns:svg="http://www.w3.org/2000/svg"
   xmlns="http://www.w3.org/2000/svg"
   xmlns:sodipodi="http://sodipodi.sourceforge.net/DTD/sodipodi-0.dtd"
   xmlns:inkscape="http://www.inkscape.org/namespaces/inkscape"
   width="256"
   height="256"
   viewBox="0 0 67.733332 67.733335"
   version="1.1"
   id="svg1788"
   inkscape:version="0.92.2 5c3e80d, 2017-08-06"
   sodipodi:docname="fics_offline.svg">
  <defs
     id="defs1782">
    <filter
       inkscape:collect="always"
       style="color-interpolation-filters:sRGB"
       id="filter1120"
       x="-0.17768136"
       width="1.3553627"
       y="-0.3276"
       height="1.6552">
      <feGaussianBlur
         inkscape:collect="always"
         stdDeviation="0.30645126"
         id="feGaussianBlur1122" />
    </filter>
    <filter
       inkscape:collect="always"
       style="color-interpolation-filters:sRGB"
       id="filter1120-5"
       x="-0.17768136"
       width="1.3553627"
       y="-0.3276"
       height="1.6552">
      <feGaussianBlur
         inkscape:collect="always"
         stdDeviation="0.30645126"
         id="feGaussianBlur1122-3" />
    </filter>
    <filter
       inkscape:collect="always"
       style="color-interpolation-filters:sRGB"
       id="filter1554"
       x="-0.12348394"
       width="1.2469679"
       y="-0.65117198"
       height="2.3023441">
      <feGaussianBlur
         inkscape:collect="always"
         stdDeviation="1.3460097"
         id="feGaussianBlur1556" />
    </filter>
    <filter
       inkscape:collect="always"
       style="color-interpolation-filters:sRGB"
       id="filter1554-2"
       x="-0.12348394"
       width="1.2469679"
       y="-0.65117198"
       height="2.3023441">
      <feGaussianBlur
         inkscape:collect="always"
         stdDeviation="1.3460097"
         id="feGaussianBlur1556-9" />
    </filter>
    <filter
       inkscape:collect="always"
       style="color-interpolation-filters:sRGB"
       id="filter3504"
       x="-0.15144973"
       width="1.3028995"
       y="-0.065244452"
       height="1.1304889">
      <feGaussianBlur
         inkscape:collect="always"
         stdDeviation="0.32614233"
         id="feGaussianBlur3506" />
    </filter>
    <filter
       inkscape:collect="always"
       style="color-interpolation-filters:sRGB"
       id="filter3953"
       x="-0.31504981"
       width="1.6300996"
       y="-1.0181488"
       height="3.0362976">
      <feGaussianBlur
         inkscape:collect="always"
         stdDeviation="2.3009986"
         id="feGaussianBlur3955" />
    </filter>
  </defs>
  <sodipodi:namedview
     id="base"
     pagecolor="#ffffff"
     bordercolor="#666666"
     borderopacity="1.0"
     inkscape:pageopacity="0.0"
     inkscape:pageshadow="2"
     inkscape:zoom="2"
     inkscape:cx="-27.453289"
     inkscape:cy="90.732417"
     inkscape:document-units="mm"
     inkscape:current-layer="layer1"
     showgrid="false"
     units="px"
     inkscape:pagecheckerboard="true"
     inkscape:window-width="2560"
     inkscape:window-height="1403"
     inkscape:window-x="1920"
     inkscape:window-y="0"
     inkscape:window-maximized="1"
     showguides="true"
     inkscape:guide-bbox="true">
    <inkscape:grid
       type="xygrid"
       id="grid2564" />
  </sodipodi:namedview>
  <metadata
     id="metadata1785">
    <rdf:RDF>
      <cc:Work
         rdf:about="">
        <dc:format>image/svg+xml</dc:format>
        <dc:type
           rdf:resource="http://purl.org/dc/dcmitype/StillImage" />
        <dc:title></dc:title>
      </cc:Work>
    </rdf:RDF>
  </metadata>
  <g
     inkscape:label="Layer 1"
     inkscape:groupmode="layer"
     id="layer1"
     transform="translate(0,-229.26665)">
    <rect
       style="opacity:1;vector-effect:none;fill:#767171;fill-opacity:1;stroke:#ac9d95;stroke-width:1.02202809;stroke-linecap:butt;stroke-linejoin:miter;stroke-miterlimit:4;stroke-dasharray:none;stroke-dashoffset:0;stroke-opacity:1"
       id="rect839"
       width="27.60199"
       height="11.72877"
       x="34.654518"
       y="230.95912"
       ry="3.9531987" />
    <rect
       style="opacity:1;vector-effect:none;fill:#767171;fill-opacity:1;stroke:#ac9d95;stroke-width:1.0222702;stroke-linecap:butt;stroke-linejoin:miter;stroke-miterlimit:4;stroke-dasharray:none;stroke-dashoffset:0;stroke-opacity:1"
       id="rect839-3"
       width="27.60199"
       height="11.72877"
       x="34.654518"
       y="243.74596"
       ry="3.9531989" />
    <path
       style="opacity:1;vector-effect:none;fill:none;fill-opacity:1;stroke:#ac9d95;stroke-width:4.37803078;stroke-linecap:butt;stroke-linejoin:miter;stroke-miterlimit:4;stroke-dasharray:none;stroke-dashoffset:0;stroke-opacity:1"
       d="M 31.234,265.10989 H 66.998176"
       id="path888"
       inkscape:connector-curvature="0" />
    <ellipse
       style="opacity:1;vector-effect:none;fill:#767171;fill-opacity:1;stroke:#ac9d95;stroke-width:1.31340921;stroke-linecap:butt;stroke-linejoin:miter;stroke-miterlimit:4;stroke-dasharray:none;stroke-dashoffset:0;stroke-opacity:1"
       id="path867"
       cx="49.088768"
       cy="265.116"
       rx="4.9741416"
       ry="5.0082698" />
    <ellipse
       ry="2.5583966"
       rx="2.6437178"
       cy="265.116"
       cx="49.088768"
       id="ellipse884"
       style="opacity:1;vector-effect:none;fill:#acacac;fill-opacity:1;stroke:none;stroke-width:0.68436623;stroke-linecap:butt;stroke-linejoin:miter;stroke-miterlimit:4;stroke-dasharray:none;stroke-dashoffset:0;stroke-opacity:1" />
    <path
       style="fill:none;stroke:#ac9d95;stroke-width:4.37803078;stroke-linecap:butt;stroke-linejoin:miter;stroke-miterlimit:4;stroke-dasharray:none;stroke-opacity:1"
       d="m 49.019559,255.86719 0.02413,4.12663"
       id="path886"
       inkscape:connector-curvature="0" />
    <circle
       style="opacity:1;vector-effect:none;fill:#d80f0f;fill-opacity:1;stroke:none;stroke-width:1.19771016;stroke-linecap:butt;stroke-linejoin:miter;stroke-miterlimit:4;stroke-dasharray:none;stroke-dashoffset:0;stroke-opacity:1"
       id="path904"
       cx="56.250717"
       cy="248.09721"
       r="2.2391806" />
    <ellipse
       style="opacity:0.59899998;vector-effect:none;fill:#ffffff;fill-opacity:1;stroke:none;stroke-width:1.16342938;stroke-linecap:butt;stroke-linejoin:miter;stroke-miterlimit:4;stroke-dasharray:none;stroke-dashoffset:0;stroke-opacity:1;filter:url(#filter1120)"
       id="path906"
       cx="-17.025068"
       cy="359.19147"
       rx="2.0696685"
       ry="1.1225321"
       transform="matrix(0.8548966,0,0,0.8548966,70.805382,-59.867332)" />
    <circle
       style="opacity:1;vector-effect:none;fill:#d80f0f;fill-opacity:1;stroke:none;stroke-width:1.19771016;stroke-linecap:butt;stroke-linejoin:miter;stroke-miterlimit:4;stroke-dasharray:none;stroke-dashoffset:0;stroke-opacity:1"
       id="path904-5"
       cx="56.250717"
       cy="234.60809"
       r="2.2391806" />
    <ellipse
       style="opacity:0.59899998;vector-effect:none;fill:#ffffff;fill-opacity:1;stroke:none;stroke-width:1.16342938;stroke-linecap:butt;stroke-linejoin:miter;stroke-miterlimit:4;stroke-dasharray:none;stroke-dashoffset:0;stroke-opacity:1;filter:url(#filter1120-5)"
       id="path906-6"
       cx="-17.025068"
       cy="341.55588"
       rx="2.0696685"
       ry="1.1225321"
       transform="matrix(0.8548966,0,0,0.8548966,70.805382,-58.279831)" />
    <rect
       style="opacity:0.36300001;vector-effect:none;fill:#b2aeae;fill-opacity:1;stroke:none;stroke-width:1.70244718;stroke-linecap:butt;stroke-linejoin:miter;stroke-miterlimit:4;stroke-dasharray:none;stroke-dashoffset:0;stroke-opacity:1;filter:url(#filter1554)"
       id="rect1148"
       width="26.160675"
       height="4.960937"
       x="-17.264065"
       y="346.31171"
       ry="2.4804685"
       transform="matrix(0.72967177,0,0,0.72967177,54.208019,-14.153722)" />
    <rect
       style="opacity:0.35499998;vector-effect:none;fill:#b2aeae;fill-opacity:1;stroke:none;stroke-width:1.70244718;stroke-linecap:butt;stroke-linejoin:miter;stroke-miterlimit:4;stroke-dasharray:none;stroke-dashoffset:0;stroke-opacity:1;filter:url(#filter1554-2)"
       id="rect1148-1"
       width="26.160675"
       height="4.960937"
       x="-16.420702"
       y="363.57578"
       ry="2.4804685"
       transform="matrix(0.72967177,0,0,0.72967177,54.208019,-14.153722)" />
    <rect
       style="opacity:1;vector-effect:none;fill:#020167;fill-opacity:1;stroke:none;stroke-width:1.43873215;stroke-linecap:butt;stroke-linejoin:miter;stroke-miterlimit:4;stroke-dasharray:none;stroke-dashoffset:0;stroke-opacity:1"
       id="rect2384"
       width="45.901493"
       height="45.969189"
       x="0.40090233"
       y="250.62988"
       ry="10.362193" />
    <path
       style="fill:#fefefe;fill-opacity:1;stroke:#5e5e5e;stroke-width:0.49200001;stroke-linecap:butt;stroke-linejoin:miter;stroke-miterlimit:4;stroke-dasharray:none;stroke-opacity:1"
       d="m 2.8610709,259.63464 h 8.6108161 c 0,0 0.73807,1.43621 0.73807,2.21421 0,0.778 -0.73807,2.21421 -0.73807,2.21421 H 5.3213042 4.8292581 l 0.2460231,23.86426 H 1.8769777 v -26.3245 c 0,0 0.2864484,-0.83927 0.4920461,-1.23011 0.1376553,-0.26169 0.4920471,-0.73807 0.4920471,-0.73807 z"
       id="path2566"
       inkscape:connector-curvature="0"
       sodipodi:nodetypes="ccsccccccsc" />
    <rect
       style="opacity:1;vector-effect:none;fill:#fefefe;fill-opacity:1;stroke:#5e5e5e;stroke-width:0.49204677;stroke-linecap:butt;stroke-linejoin:miter;stroke-miterlimit:4;stroke-dasharray:none;stroke-dashoffset:0;stroke-opacity:1"
       id="rect2570"
       width="4.3415971"
       height="4.9204764"
       x="5.5673246"
       y="270.45966"
       ry="0.98409498" />
    <rect
       style="opacity:1;vector-effect:none;fill:#fefefe;fill-opacity:1;stroke:#5e5e5e;stroke-width:0.49204677;stroke-linecap:butt;stroke-linejoin:miter;stroke-miterlimit:4;stroke-dasharray:none;stroke-dashoffset:0;stroke-opacity:1"
       id="rect2572"
       width="3.6903505"
       height="1.9681903"
       x="13.194053"
       y="271.68976"
       ry="0.98409516" />
    <path
       style="opacity:1;vector-effect:none;fill:#fefefe;fill-opacity:1;stroke:#5e5e5e;stroke-width:0.49204677;stroke-linecap:butt;stroke-linejoin:miter;stroke-miterlimit:4;stroke-dasharray:none;stroke-dashoffset:0;stroke-opacity:1"
       d="m 11.963933,275.13411 h 4.674444 c 0,0 0.403283,0.27775 0.492047,0.49204 0.09415,0.22729 0,0.73807 0,0.73807 v 11.31708 h -2.95228 c 0,0 -10e-7,-6.88866 0,-10.08696 0,-0.18337 -0.246023,-0.49205 -0.246023,-0.49205 h -1.968188 c 0,0 -0.492046,-0.61734 -0.492046,-0.98409 0,-0.36675 0.492046,-0.98409 0.492046,-0.98409 z"
       id="path2574"
       inkscape:connector-curvature="0"
       sodipodi:nodetypes="ccscccsccsc" />
    <path
       style="opacity:1;vector-effect:none;fill:#fefefe;fill-opacity:1;stroke:#5e5e5e;stroke-width:0.49204677;stroke-linecap:butt;stroke-linejoin:miter;stroke-miterlimit:4;stroke-dasharray:none;stroke-dashoffset:0;stroke-opacity:1"
       d="m 20.574752,275.13411 h 2.706256 l 0.246024,0.24602 v 9.84093 0.24603 h 6.642631 c 0,0 0.476804,0.61766 0.492046,0.98409 0.01835,0.44125 -0.492046,1.23012 -0.492046,1.23012 h -8.610818 c 0,0 -0.724762,-0.23271 -0.984093,-0.49205 -0.259331,-0.25932 -0.492047,-0.98409 -0.492047,-0.98409 l 0.246023,-10.33298 v -0.49205 z"
       id="path2590"
       inkscape:connector-curvature="0"
       sodipodi:nodetypes="ccccccaccscccc" />
    <path
       style="opacity:1;vector-effect:none;fill:#fefefe;fill-opacity:1;stroke:#5e5e5e;stroke-width:0.49204677;stroke-linecap:butt;stroke-linejoin:miter;stroke-miterlimit:4;stroke-dasharray:none;stroke-dashoffset:0;stroke-opacity:1"
       d="m 24.511125,275.13411 h 5.412514 c 1.75e-4,-8.9e-4 0.374745,0.064 0.687757,0.43901 0.222959,0.26711 0.296337,0.54508 0.296337,0.54508 v 4.42842 c 0,0 -0.138803,0.34329 -0.246024,0.49205 -0.06781,0.0941 -0.246023,0.24602 -0.246023,0.24602 h -2.460233 l -0.246024,-0.24602 v -3.44433 c 0,0 0.01384,-0.12034 -0.04893,-0.27188 -0.04438,-0.10714 -0.197096,-0.22017 -0.197096,-0.22017 h -2.95228 c 0,0 -0.246023,-0.64597 -0.246023,-0.98409 0,-0.33812 0.246023,-0.98409 0.246025,-0.98409 z"
       id="path2597"
       inkscape:connector-curvature="0"
       sodipodi:nodetypes="ccsccsccccsccac" />
    <path
       style="opacity:1;vector-effect:none;fill:#fefefe;fill-opacity:1;stroke:#5e5e5e;stroke-width:0.49204677;stroke-linecap:butt;stroke-linejoin:miter;stroke-miterlimit:4;stroke-dasharray:none;stroke-dashoffset:0;stroke-opacity:1"
       d="m 34.352059,275.13411 h 8.856842 c 0,0 0.492046,0.49204 0.472825,0.82648 -0.01697,0.2952 -0.472825,0.89568 -0.472825,0.89568 h -6.150584 c 0,0 -0.492047,0.0627 -0.492047,0.24602 v 3.44433 c 0,0.18338 -0.246023,0.49205 -0.246023,0.49205 h -2.706258 l -0.246023,-0.73807 v -4.42842 c 0,0 0.303877,-0.35642 0.492047,-0.49205 0.148762,-0.10722 0.492046,-0.24602 0.492046,-0.24602"
       id="path2604"
       inkscape:connector-curvature="0"
       sodipodi:nodetypes="ccsccssccccsc" />
    <path
       style="opacity:1;vector-effect:none;fill:#fefefe;fill-opacity:1;stroke:#5e5e5e;stroke-width:0.49204677;stroke-linecap:butt;stroke-linejoin:miter;stroke-miterlimit:4;stroke-dasharray:none;stroke-dashoffset:0;stroke-opacity:1"
       d="m 42.716854,287.18925 h -8.856842 c 0,0 -0.492046,-0.49204 -0.472825,-0.82648 0.01697,-0.2952 0.472825,-0.89568 0.472825,-0.89568 h 6.150584 c 0,0 0.492047,-0.0627 0.492047,-0.24602 v -3.44433 c 0,-0.18337 0.246023,-0.49205 0.246023,-0.49205 h 2.706258 l 0.246023,0.73807 v 4.42842 c 0,0 -0.303877,0.35642 -0.492047,0.49205 -0.148762,0.10722 -0.492046,0.24602 -0.492046,0.24602"
       id="path2604-6"
       inkscape:connector-curvature="0"
       sodipodi:nodetypes="ccsccssccccsc" />
    <path
       style="fill:#989b92;fill-opacity:1;stroke:#989a9a;stroke-width:0.24602336px;stroke-linecap:butt;stroke-linejoin:miter;stroke-opacity:1"
       d="m 42.313222,259.57697 c -0.454976,1.7873 0.791446,3.72974 2.915564,8.92677 l 0.468916,1.02758 c 0,0 0.0072,0.39661 -0.315311,0.84679 -0.682151,0.38971 -0.849751,0.40173 -1.284502,0.42485 -0.27695,0.005 -0.618109,-0.43917 -0.824711,-0.63666 -0.786971,-0.75226 -1.432783,-1.25968 -1.432783,-1.25968 l -0.99947,-0.43054 -0.876457,-0.61506 -0.876459,-0.40362 1.553022,2.31031 c 0,0 0.999628,1.09188 1.337752,1.43 0.492048,0.49205 0.630914,0.64317 0.968719,1.49152 0.217863,0.54714 0.261399,1.21474 0.261399,1.21474 v 0 h -2.460234 l -2.706257,-6.39661 0.73807,-2.46023 4.674444,4.42842 h 0.492047 v -0.98409 l -1.968188,-4.92047 c 0,0 -0.73807,-2.46023 -0.73807,-2.70626 0,-0.24602 1.072509,-1.28778 1.072509,-1.28778 z"
       id="path2756"
       inkscape:connector-curvature="0"
       sodipodi:nodetypes="cccccscccccsscccccccccscc" />
    <path
       style="fill:#5d5d5d;fill-opacity:1;stroke:#78797b;stroke-width:0.39687499;stroke-linecap:butt;stroke-linejoin:miter;stroke-miterlimit:4;stroke-dasharray:none;stroke-opacity:1"
       d="m 42.470831,259.14259 -0.738071,0.73807 c 0,0 -2.421146,0.94705 -3.444326,1.72216 -0.971775,0.73616 -1.820418,1.66851 -2.460234,2.70626 -0.599459,0.97229 -0.936568,2.09443 -1.230117,3.1983 -0.277206,1.04242 -0.409799,2.12281 -0.492047,3.19831 -0.07504,0.98123 -1e-6,3.1983 -1e-6,3.1983 h 8.856843 l -1.230118,-1.72216 -1.722163,-2.21421 -0.73807,-0.9841 -0.492047,-1.23011 -0.246024,-2.21421 0.492047,0.73807 c 0,0 0.292228,0.52012 0.492047,0.73807 0.354859,0.38705 0.776423,0.71971 1.230117,0.98409 0.381567,0.22235 1.230116,0.49205 1.230116,0.49205 l 0.984095,0.73807 c 0,0 0.607752,0.71284 0.984093,0.98409 0.148761,0.10722 0.31104,0.2754 0.492047,0.24602 0.343437,-0.0557 0.73807,-0.73807 0.73807,-0.73807 l -0.492047,-1.23011 -3.198304,-7.62673 0.246023,-0.73807 0.738071,-0.98409"
       id="path2737"
       inkscape:connector-curvature="0"
       sodipodi:nodetypes="ccssssccccccccssccssccccc" />
    <path
       style="opacity:0.88899997;fill:#989a9a;fill-opacity:1;stroke:none;stroke-width:0.26458332px;stroke-linecap:butt;stroke-linejoin:miter;stroke-opacity:1;filter:url(#filter3504)"
       d="m -39.990201,181.1921 c 0,0 -3.00361,2.46919 -3.835318,4.16272 -1.167719,2.37771 -1.333008,7.83434 -1.333008,7.83434 0,0 1.080085,-4.80397 2.174905,-7.13275 0.795978,-1.69312 2.993421,-4.86431 2.993421,-4.86431 z"
       id="path2766"
       inkscape:connector-curvature="0"
       sodipodi:nodetypes="cscsc"
       transform="matrix(0.92985209,0,0,0.92985209,76.668078,93.195002)" />
    <rect
       style="opacity:0.48800001;vector-effect:none;fill:#cacaca;fill-opacity:1;stroke:none;stroke-width:0.39687499;stroke-linecap:butt;stroke-linejoin:miter;stroke-miterlimit:4;stroke-dasharray:none;stroke-dashoffset:0;stroke-opacity:1;filter:url(#filter3953)"
       id="rect3591"
       width="17.528646"
       height="5.4239583"
       x="2.8610709"
       y="254.21068"
       ry="2.7119792"
       transform="matrix(1.346811,0,0,1.211987,0.39995533,-53.075207)" />
  </g>
</svg>
