<svg height="50" width="50" xmlns="http://www.w3.org/2000/svg" xmlns:xlink="http://www.w3.org/1999/xlink"><linearGradient id="a" gradientTransform="matrix(24.16238 0 0 18.68556 -538.2464 -790.0391)" gradientUnits="userSpaceOnUse" x1="23.402565" x2="23.389874" y1="44.066776" y2="42.883698"><stop offset="0" stop-color="#fff" stop-opacity="0"/><stop offset="1" stop-color="#fff" stop-opacity=".87451"/></linearGradient><linearGradient id="b" gradientUnits="userSpaceOnUse" x1="22.09436333" x2="21.710065715" y1="8.5988678885" y2="43.061521172"><stop offset="0"/><stop offset="1" stop-color="#8c8c8c"/></linearGradient><linearGradient id="c" gradientUnits="userSpaceOnUse" x1="26.34517117045" x2="29.4195662398" y1="7.13049975064" y2="39.02725134163"><stop offset="0" stop-color="#828282"/><stop offset="1" stop-color="#929292" stop-opacity=".352941"/></linearGradient><linearGradient id="d" gradientUnits="userSpaceOnUse" x1="24.7844375" x2="25.00003125" y1=".9134375" y2="50"><stop offset="0" stop-color="#adadad"/><stop offset="1" stop-color="#f0f0f0"/></linearGradient><path d="m50.000031 25.000031c0 13.8-11.2 25-25 25s-24.99999975-11.2-24.99999975-25 11.19999975-24.99999975 24.99999975-24.99999975 25 11.19999975 25 24.99999975z" fill="url(#d)"/><path d="m45.175583 25.000115c0 11.136931-9.038657 20.175588-20.175589 20.175588-11.136931 0-20.1755883-9.038657-20.1755883-20.175588 0-11.136932 9.0386573-20.175623 20.1755883-20.175623 11.136932 0 20.175589 9.038691 20.175589 20.175623z" fill="url(#c)"/><path d="m43.061992 24.999594c0 9.970206-8.091751 18.061957-18.061957 18.061957-9.970207 0-18.0619578-8.091751-18.0619578-18.061957 0-9.970207 8.0917508-18.0619881 18.0619578-18.0619881 9.970206 0 18.061957 8.0917811 18.061957 18.0619881z" fill="url(#b)"/><path d="m39.388106 18.974718c0 6.151828-6.456188 11.144609-14.411144 11.144609s-14.411144-4.992781-14.411144-11.144609c0-6.151829 6.456188-11.1446289 14.411144-11.1446289s14.411144 4.9927999 14.411144 11.1446289z" fill="url(#a)"/></svg>