<svg height="50" width="50" xmlns="http://www.w3.org/2000/svg" xmlns:xlink="http://www.w3.org/1999/xlink"><linearGradient id="a" gradientUnits="userSpaceOnUse" x1="23.402565" x2="23.389874" y1="44.066776" y2="42.883698"><stop offset="0" stop-color="#fff" stop-opacity="0"/><stop offset="1" stop-color="#fff" stop-opacity=".87451"/></linearGradient><linearGradient id="b" gradientUnits="userSpaceOnUse" x1="23.21398" x2="23.20129" y1="42.754631" y2="43.892632"><stop offset="0" stop-color="#da4615"/><stop offset="1" stop-color="#ffc06d"/></linearGradient><linearGradient id="c" gradientUnits="userSpaceOnUse" x1="23.349695" x2="23.44058" y1="42.767944" y2="43.710873"><stop offset="0" stop-color="#828282"/><stop offset="1" stop-color="#929292" stop-opacity=".352941"/></linearGradient><linearGradient id="d" gradientUnits="userSpaceOnUse" x1="23.193102" x2="23.200001" y1="42.42923" y2="44"><stop offset="0" stop-color="#adadad"/><stop offset="1" stop-color="#f0f0f0"/></linearGradient><path d="m24.000001 43.200001c0 .4416-.3584.8-.8.8s-.8-.3584-.8-.8.3584-.8.8-.8.8.3584.8.8z" fill="url(#d)" transform="matrix(31.25 0 0 31.25 -700.00003125 -1325.00003125)"/><path d="m23.906358 43.296204c0 .329229-.2672.596429-.596429.596429s-.596429-.2672-.596429-.596429.2672-.59643.596429-.59643.596429.267201.596429.59643z" fill="url(#c)" transform="matrix(33.8273125 0 0 33.8273125 -763.51225 -1439.59421875)"/><path d="m23.906358 43.296204c0 .329229-.2672.596429-.596429.596429s-.596429-.2672-.596429-.596429.2672-.59643.596429-.59643.596429.267201.596429.59643z" fill="url(#b)" transform="matrix(30.2835 0 0 30.2835 -680.90621875 -1286.16059375)"/><path d="m23.906358 43.296204c0 .329229-.2672.596429-.596429.596429s-.596429-.2672-.596429-.596429.2672-.59643.596429-.59643.596429.267201.596429.59643z" fill="url(#a)" transform="matrix(24.162375 0 0 18.6855625 -538.24646875 -790.03875)"/></svg>