<?xml version="1.0" encoding="UTF-8" standalone="no"?>
<!-- Created with Inkscape (http://www.inkscape.org/) -->

<svg
   xmlns:dc="http://purl.org/dc/elements/1.1/"
   xmlns:cc="http://creativecommons.org/ns#"
   xmlns:rdf="http://www.w3.org/1999/02/22-rdf-syntax-ns#"
   xmlns:svg="http://www.w3.org/2000/svg"
   xmlns="http://www.w3.org/2000/svg"
   xmlns:xlink="http://www.w3.org/1999/xlink"
   xmlns:sodipodi="http://sodipodi.sourceforge.net/DTD/sodipodi-0.dtd"
   xmlns:inkscape="http://www.inkscape.org/namespaces/inkscape"
   width="256"
   height="256"
   viewBox="0 0 67.733332 67.733335"
   version="1.1"
   id="svg8"
   inkscape:version="0.92.2 5c3e80d, 2017-08-06"
   sodipodi:docname="chesscom_fetch.svg"
   inkscape:export-filename="chesscom_offline.png"
   inkscape:export-xdpi="96"
   inkscape:export-ydpi="96">
  <defs
     id="defs2">
    <linearGradient
       inkscape:collect="always"
       id="linearGradient866">
      <stop
         style="stop-color:#441943;stop-opacity:1"
         offset="0"
         id="stop862" />
      <stop
         style="stop-color:#eac7ea;stop-opacity:1"
         offset="1"
         id="stop864" />
    </linearGradient>
    <clipPath
       clipPathUnits="userSpaceOnUse"
       id="clipPath4558">
      <path
         sodipodi:nodetypes="cssaasccccscsccccsaassccc"
         inkscape:connector-curvature="0"
         id="path4560"
         d="m 2.2678571,212.71131 c 0,0 -15.0188181,-4.0097 -18.1428571,-10.20536 -4.573376,-9.07002 0.671584,-21.11235 3.02381,-30.99405 1.301186,-5.46629 3.4439791,-10.52602 6.4255948,-15.11905 C 7.1655334,135.45638 30.495251,122.17944 44.601191,101.58631 49.823629,93.962122 54.497806,85.615857 56.696427,76.639878 58.76557,68.192497 57.452382,50.55952 57.452382,50.55952 H 22.678571 L 23.056547,28.258929 55.940476,4.4464309 c 0,0 -25.48032,-13.8919397 -20.410715,-47.6250019 5.562904,-37.015484 52.156085,-39.6875 52.156085,-39.6875 0,0 46.593354,2.672016 52.156284,39.6875 5.06964,33.7330622 -20.41083,47.6250019 -20.41083,47.6250019 l 32.88412,23.8124981 0.37798,22.300591 h -34.77401 c 0,0 -1.3132,17.632977 0.75596,26.080358 2.19863,8.975979 6.87283,17.322244 12.0953,24.946432 14.10602,20.59313 37.43587,33.87007 51.02708,54.80654 2.98163,4.59303 5.12443,9.65276 6.42563,15.11905 2.35224,9.8817 7.59723,21.92403 3.02383,30.99405 -3.12406,6.19566 -18.14296,10.20536 -18.14296,10.20536 H 87.685846 Z"
         style="opacity:1;fill:#000080;stroke:#000000;stroke-width:0.26458332px;stroke-linecap:butt;stroke-linejoin:miter;stroke-opacity:1" />
    </clipPath>
    <filter
       inkscape:collect="always"
       style="color-interpolation-filters:sRGB"
       id="filter5086"
       x="-0.023180705"
       width="1.0463614"
       y="-0.016386099"
       height="1.0327722">
      <feGaussianBlur
         inkscape:collect="always"
         stdDeviation="2.2583625"
         id="feGaussianBlur5088" />
    </filter>
    <filter
       inkscape:collect="always"
       style="color-interpolation-filters:sRGB"
       id="filter6004"
       x="-0.046423461"
       width="1.0928469"
       y="-0.33681703"
       height="1.6736341">
      <feGaussianBlur
         inkscape:collect="always"
         stdDeviation="3.4903833"
         id="feGaussianBlur6006" />
    </filter>
    <linearGradient
       inkscape:collect="always"
       xlink:href="#linearGradient866"
       id="linearGradient868"
       x1="62.523148"
       y1="266.69669"
       x2="62.369507"
       y2="250.39796"
       gradientUnits="userSpaceOnUse"
       gradientTransform="matrix(1.6743442,0,0,1.6743442,-50.712099,-191.23611)" />
    <filter
       inkscape:collect="always"
       style="color-interpolation-filters:sRGB"
       id="filter1101"
       x="-0.056527598"
       width="1.1130552"
       y="-0.68184258"
       height="2.3636852">
      <feGaussianBlur
         inkscape:collect="always"
         stdDeviation="0.22803794"
         id="feGaussianBlur1103" />
    </filter>
    <filter
       inkscape:collect="always"
       style="color-interpolation-filters:sRGB"
       id="filter1453"
       x="-0.30959214"
       width="1.6191843"
       y="-0.37311911"
       height="1.7462382">
      <feGaussianBlur
         inkscape:collect="always"
         stdDeviation="5.2412024"
         id="feGaussianBlur1455" />
    </filter>
    <filter
       inkscape:collect="always"
       style="color-interpolation-filters:sRGB"
       id="filter1653"
       x="-0.24866999"
       width="1.49734"
       y="-0.18822104"
       height="1.3764421">
      <feGaussianBlur
         inkscape:collect="always"
         stdDeviation="0.33849267"
         id="feGaussianBlur1655" />
    </filter>
  </defs>
  <sodipodi:namedview
     id="base"
     pagecolor="#ffffff"
     bordercolor="#666666"
     borderopacity="1.0"
     inkscape:pageopacity="0.0"
     inkscape:pageshadow="2"
     inkscape:zoom="1.4142136"
     inkscape:cx="-82.63863"
     inkscape:cy="219.29036"
     inkscape:document-units="mm"
     inkscape:current-layer="layer1"
     showgrid="false"
     showguides="true"
     inkscape:guide-bbox="true"
     inkscape:window-width="2560"
     inkscape:window-height="1403"
     inkscape:window-x="1920"
     inkscape:window-y="0"
     inkscape:window-maximized="1"
     units="px"
     inkscape:pagecheckerboard="true"
     inkscape:measure-start="-66.125,-149.687"
     inkscape:measure-end="-66.125,-162.875" />
  <metadata
     id="metadata5">
    <rdf:RDF>
      <cc:Work
         rdf:about="">
        <dc:format>image/svg+xml</dc:format>
        <dc:type
           rdf:resource="http://purl.org/dc/dcmitype/StillImage" />
        <dc:title></dc:title>
      </cc:Work>
    </rdf:RDF>
  </metadata>
  <g
     inkscape:label="Layer 1"
     inkscape:groupmode="layer"
     id="layer1"
     transform="translate(0,-229.26665)">
    <ellipse
       style="opacity:0.62300002;vector-effect:none;fill:#28170b;fill-opacity:1;stroke:none;stroke-width:1;stroke-linecap:butt;stroke-linejoin:miter;stroke-miterlimit:4;stroke-dasharray:none;stroke-dashoffset:0;stroke-opacity:1;filter:url(#filter6004)"
       id="path5090"
       cx="86.518753"
       cy="209.95209"
       rx="90.222916"
       ry="12.435416"
       transform="matrix(0.2135729,0,0,0.2135729,4.9837552,247.71496)" />
    <path
       style="opacity:1;fill:#3e4a00;fill-opacity:1;stroke:#5a6a00;stroke-width:1.49363673;stroke-linecap:butt;stroke-linejoin:miter;stroke-miterlimit:4;stroke-dasharray:none;stroke-opacity:1"
       d="m 5.4681067,293.14432 c 0,0 -3.2076126,-0.85636 -3.8748221,-2.17958 -0.97674982,-1.93711 0.1434319,-4.50903 0.6458036,-6.61949 0.2778981,-1.16746 0.7355404,-2.24807 1.3723325,-3.22902 2.9026977,-4.47146 7.8852923,-7.30705 10.8979383,-11.70519 1.115372,-1.62832 2.11365,-3.41085 2.583215,-5.32789 0.441914,-1.80412 0.161451,-5.57005 0.161451,-5.57005 H 9.8272824 l 0.080726,-4.76281 7.0231166,-5.0857 c 0,0 -5.441906,-2.96694 -4.359176,-10.17141 1.188086,-7.9055 9.291178,-8.53307 11.139127,-8.47618 1.614489,0.0497 9.967544,1.22933 11.139168,8.47618 1.162755,7.19199 -4.3592,10.17141 -4.3592,10.17141 l 7.023157,5.0857 0.08073,4.76281 h -7.426785 c 0,0 -0.280465,3.76593 0.161452,5.57005 0.469567,1.91704 1.46785,3.69957 2.583228,5.32789 3.012664,4.39814 7.995287,7.23373 10.898002,11.70519 0.636795,0.98095 1.094439,2.06156 1.37234,3.22902 0.502374,2.11046 1.622563,4.68238 0.645808,6.61949 -0.667214,1.32322 -3.874845,2.17958 -3.874845,2.17958 H 23.711075 Z"
       id="path4523"
       inkscape:connector-curvature="0"
       sodipodi:nodetypes="cssaasccccsssccccsaassccc" />
    <ellipse
       style="opacity:0.596;vector-effect:none;fill:#ffffff;fill-opacity:1;stroke:none;stroke-width:0.83270216;stroke-linecap:butt;stroke-linejoin:miter;stroke-miterlimit:4;stroke-dasharray:none;stroke-dashoffset:0;stroke-opacity:1;filter:url(#filter1453)"
       id="path4531"
       cx="87.768715"
       cy="-2.7963355"
       rx="22.745214"
       ry="13.397865"
       transform="matrix(0.17744341,-0.11885797,0.11885797,0.17744341,4.9837552,247.71496)" />
    <path
       style="opacity:0.43600003;fill:#000000;stroke:none;stroke-width:0.26458332px;stroke-linecap:butt;stroke-linejoin:miter;stroke-opacity:1;filter:url(#filter5086)"
       d="m 57.452381,50.55952 h 45.867409 c 0,0 5.7943,-13.729855 4.49792,-20.656394 -0.63225,-3.378098 -3.23793,-6.189435 -5.68854,-8.598959 C 99.145972,18.370983 91.545832,14.557293 91.545832,14.557293 L 92.736457,4.4464308 c 0,0 25.323013,-19.2700518 28.178123,-41.6151788 1.37603,-10.769268 0.87268,-18.022599 -4.7625,-28.310417 -9.09986,-16.6131 -44.714581,-23.415624 -44.714581,-23.415624 l 91.016661,-2.910417 C 207.84522,252.12797 194.49377,67.103702 203.2,179.78958 l -0.52917,35.58646 -49.60937,19.57917 c 0,0 -122.237502,4.49791 -127.793752,3.96875 -5.55625,-0.52917 -55.297916,-30.03021 -55.297916,-30.03021 0,0 -1.322917,-38.23229 0,-38.1 1.322917,0.13229 13.229167,-4.63021 13.229167,-4.63021 l 5.159374,0.13229 c 0,0 5.7736753,9.18419 10.054167,12.30313 3.9047978,2.84519 8.7294511,4.48916 13.49375,5.29166 16.319787,2.74891 33.564637,2.07252 49.609374,-1.98437 6.902261,-1.74523 13.456056,-4.71906 19.182292,-9.39271 5.503851,-4.49214 8.357012,-19.60293 9.98802,-25.4 8.108351,-28.81937 8.323417,-30.28116 10.781774,-50.270832 0.61937,-5.036304 1.89355,-10.75502 -0.52917,-15.213541 C 98.366058,76.895039 93.993973,72.94047 88.748805,69.921354 84.16768,67.284462 79.251187,65.099524 74.083332,64.166667 66.31438,62.764282 50.403124,64.563542 50.403124,64.563542 L 47.757291,50.55952 h 9.69509"
       id="path4554"
       inkscape:connector-curvature="0"
       sodipodi:nodetypes="ccaaccsscccccccsccaassssssaccc"
       clip-path="url(#clipPath4558)"
       transform="matrix(0.2135729,0,0,0.2135729,4.9837552,247.71496)" />
    <path
       style="fill:url(#linearGradient868);fill-opacity:1;stroke:none;stroke-width:0.44300357px;stroke-linecap:butt;stroke-linejoin:miter;stroke-opacity:1"
       d="m 45.455902,246.09571 h -4.9337 c 0,0 8.116245,10.61231 12.686655,15.11441 0.316285,0.31157 1.142299,-0.22702 1.448789,-0.54822 4.518656,-4.73552 12.647499,-14.56619 12.647499,-14.56619 h -4.659604 l -0.156618,-14.44854 c 0,0 -0.0092,-1.55861 -0.802171,-1.57818 -1.478137,-0.0293 -12.843117,-0.049 -15.36887,0 -0.944761,0.0182 -0.99902,3.57516 -0.99902,3.57516 z"
       id="path856"
       inkscape:connector-curvature="0"
       sodipodi:nodetypes="ccssccccscc" />
    <rect
       style="opacity:0.73999999;vector-effect:none;fill:#f8f0f0;fill-opacity:1;stroke:none;stroke-width:1.21864712;stroke-linecap:butt;stroke-linejoin:miter;stroke-miterlimit:4;stroke-dasharray:none;stroke-dashoffset:0;stroke-opacity:1;filter:url(#filter1101)"
       id="rect883"
       width="9.681838"
       height="0.80266482"
       x="51.248592"
       y="269.78"
       ry="0.36018851"
       transform="matrix(1.6743442,0,0,1.6743442,-39.904947,-221.46481)" />
    <path
       style="opacity:0.485;vector-effect:none;fill:#f8f0f0;fill-opacity:1;stroke:none;stroke-width:1.21864712;stroke-linecap:butt;stroke-linejoin:miter;stroke-miterlimit:4;stroke-dasharray:none;stroke-dashoffset:0;stroke-opacity:1;filter:url(#filter1653)"
       d="m 51.542926,279.97491 c 0,0 -3.840832,-0.8875 -2.448245,-0.0529 0.524424,1.02474 2.962737,3.95841 2.962737,3.95841 0,0 -1.403164,-1.80073 -1.613638,-2.78294 -0.210476,-0.98222 1.099146,-1.12254 1.099146,-1.12254"
       id="path1105"
       inkscape:connector-curvature="0"
       sodipodi:nodetypes="cccsc"
       transform="matrix(2.6348434,0,0,2.6348434,-85.9879,-489.20583)" />
  </g>
</svg>
