<?xml version="1.0" encoding="UTF-8" standalone="no"?>
<!-- Created with Inkscape (http://www.inkscape.org/) -->

<svg
   xmlns:dc="http://purl.org/dc/elements/1.1/"
   xmlns:cc="http://creativecommons.org/ns#"
   xmlns:rdf="http://www.w3.org/1999/02/22-rdf-syntax-ns#"
   xmlns:svg="http://www.w3.org/2000/svg"
   xmlns="http://www.w3.org/2000/svg"
   xmlns:xlink="http://www.w3.org/1999/xlink"
   xmlns:sodipodi="http://sodipodi.sourceforge.net/DTD/sodipodi-0.dtd"
   xmlns:inkscape="http://www.inkscape.org/namespaces/inkscape"
   width="256"
   height="256"
   viewBox="0 0 67.733332 67.733335"
   version="1.1"
   id="svg1788"
   inkscape:version="0.92.2 5c3e80d, 2017-08-06"
   sodipodi:docname="lichess_fetch.svg"
   inkscape:export-filename="../lichess_fetch.png"
   inkscape:export-xdpi="96"
   inkscape:export-ydpi="96">
  <defs
     id="defs1782">
    <linearGradient
       inkscape:collect="always"
       id="linearGradient2390">
      <stop
         style="stop-color:#feffff;stop-opacity:1"
         offset="0"
         id="stop2386" />
      <stop
         style="stop-color:#0082c0;stop-opacity:1"
         offset="1"
         id="stop2388" />
    </linearGradient>
    <linearGradient
       inkscape:collect="always"
       xlink:href="#linearGradient2390"
       id="linearGradient2394"
       x1="-23.51972"
       y1="241.30769"
       x2="-23.118816"
       y2="289.3494"
       gradientUnits="userSpaceOnUse"
       gradientTransform="translate(48.509418,10.22306)" />
    <filter
       inkscape:collect="always"
       style="color-interpolation-filters:sRGB"
       id="filter1101"
       x="-0.0565276"
       width="1.1130552"
       y="-0.68184257"
       height="2.3636851">
      <feGaussianBlur
         inkscape:collect="always"
         stdDeviation="0.22803794"
         id="feGaussianBlur1103" />
    </filter>
    <filter
       inkscape:collect="always"
       style="color-interpolation-filters:sRGB"
       id="filter1653"
       x="-0.24867"
       width="1.49734"
       y="-0.18822104"
       height="1.3764421">
      <feGaussianBlur
         inkscape:collect="always"
         stdDeviation="0.33849267"
         id="feGaussianBlur1655" />
    </filter>
    <linearGradient
       inkscape:collect="always"
       xlink:href="#linearGradient866"
       id="linearGradient868"
       x1="62.523148"
       y1="266.69669"
       x2="62.369507"
       y2="250.39796"
       gradientUnits="userSpaceOnUse"
       gradientTransform="matrix(1.6743442,0,0,1.6743442,-50.712048,-191.23596)" />
    <linearGradient
       inkscape:collect="always"
       id="linearGradient866">
      <stop
         style="stop-color:#441943;stop-opacity:1"
         offset="0"
         id="stop862" />
      <stop
         style="stop-color:#eac7ea;stop-opacity:1"
         offset="1"
         id="stop864" />
    </linearGradient>
  </defs>
  <sodipodi:namedview
     id="base"
     pagecolor="#ffffff"
     bordercolor="#666666"
     borderopacity="1.0"
     inkscape:pageopacity="0.0"
     inkscape:pageshadow="2"
     inkscape:zoom="1.4"
     inkscape:cx="37.283097"
     inkscape:cy="2.9185171"
     inkscape:document-units="mm"
     inkscape:current-layer="layer1"
     showgrid="false"
     units="px"
     inkscape:pagecheckerboard="true"
     inkscape:window-width="1699"
     inkscape:window-height="1112"
     inkscape:window-x="2450"
     inkscape:window-y="436"
     inkscape:window-maximized="0" />
  <metadata
     id="metadata1785">
    <rdf:RDF>
      <cc:Work
         rdf:about="">
        <dc:format>image/svg+xml</dc:format>
        <dc:type
           rdf:resource="http://purl.org/dc/dcmitype/StillImage" />
        <dc:title></dc:title>
      </cc:Work>
    </rdf:RDF>
  </metadata>
  <g
     inkscape:label="Layer 1"
     inkscape:groupmode="layer"
     id="layer1"
     transform="translate(0,-229.26665)">
    <g
       id="g2404"
       transform="matrix(1.1673432,0,0,1.1673432,-1.1590717,-49.16585)">
      <rect
         ry="10.2269"
         y="250.82918"
         x="1.3363457"
         height="45.368999"
         width="45.302185"
         id="rect2384"
         style="opacity:1;vector-effect:none;fill:url(#linearGradient2394);fill-opacity:1;stroke:none;stroke-width:1.4199475;stroke-linecap:butt;stroke-linejoin:miter;stroke-miterlimit:4;stroke-dasharray:none;stroke-dashoffset:0;stroke-opacity:1" />
      <path
         inkscape:connector-curvature="0"
         id="path2382"
         d="m 15.841423,292.06715 c -4.496682,-2.04188 -8.625948,-6.15265 -10.457836,-10.41099 -1.313774,-3.05394 -1.563907,-4.71402 -1.28907,-8.55523 0.385313,-5.38525 1.634893,-8.26507 5.082039,-11.71222 3.164793,-3.16479 7.448304,-4.9691 13.067941,-5.5045 2.540239,-0.24202 6.022614,-0.8955 7.73861,-1.45219 4.569068,-1.48223 4.772583,-1.39425 4.255443,1.83977 -0.40995,2.56368 0.02217,3.69686 4.275713,11.21239 2.602463,4.59827 4.731751,9.15564 4.731751,10.12749 0,1.77168 -2.003761,4.09809 -4.738875,5.50193 -1.273871,0.65384 -2.517031,-0.25044 -9.647709,-7.01778 -6.979217,-6.62359 -8.176941,-8.08881 -8.127929,-9.9432 0.03162,-1.19618 0.236324,-1.68339 0.454906,-1.08268 0.640969,1.76151 3.970647,5.07346 7.497029,7.45712 1.802119,1.21814 4.691354,3.56095 6.420523,5.20623 l 3.143942,2.99142 1.392818,-1.70161 c 1.613014,-1.97062 1.704454,-1.72435 -4.600264,-12.38972 -2.436576,-4.12184 -3.669392,-6.99667 -3.569715,-8.32433 0.151803,-2.02197 0.145787,-2.0247 -2.009493,-0.91016 -1.198732,0.61989 -4.042972,1.12501 -6.384651,1.13388 -12.208504,0.0462 -20.083391,11.72851 -14.959327,22.19194 2.63989,5.39071 9.761094,9.82974 15.769098,9.82974 3.015166,0 7.845697,-1.66367 10.670208,-3.6749 1.556514,-1.10834 2.136279,-1.25006 2.136279,-0.52222 0,1.38341 -4.300102,5.40091 -6.782594,6.33685 -3.288728,1.2399 -10.683215,0.91034 -14.068837,-0.62703 z"
         style="fill:#000000;stroke-width:0.72812891" />
    </g>
    <path
       style="fill:url(#linearGradient868);fill-opacity:1;stroke:none;stroke-width:0.44300357px;stroke-linecap:butt;stroke-linejoin:miter;stroke-opacity:1"
       d="m 45.455953,246.09587 h -4.9337 c 0,0 8.116245,10.61231 12.686656,15.11441 0.316285,0.31157 1.142299,-0.22702 1.448789,-0.54822 4.518656,-4.73552 12.647498,-14.56619 12.647498,-14.56619 h -4.659603 l -0.156618,-14.44854 c 0,0 -0.0092,-1.55861 -0.802171,-1.57818 -1.478137,-0.0293 -12.843118,-0.049 -15.368871,0 -0.944761,0.0182 -0.99902,3.57516 -0.99902,3.57516 z"
       id="path856"
       inkscape:connector-curvature="0"
       sodipodi:nodetypes="ccssccccscc" />
    <rect
       style="opacity:0.73999999;vector-effect:none;fill:#f8f0f0;fill-opacity:1;stroke:none;stroke-width:1.21864712;stroke-linecap:butt;stroke-linejoin:miter;stroke-miterlimit:4;stroke-dasharray:none;stroke-dashoffset:0;stroke-opacity:1;filter:url(#filter1101)"
       id="rect883"
       width="9.681838"
       height="0.80266482"
       x="51.248592"
       y="269.78"
       ry="0.36018851"
       transform="matrix(1.6743442,0,0,1.6743442,-39.904897,-221.46466)" />
    <path
       style="opacity:0.48500001;vector-effect:none;fill:#f8f0f0;fill-opacity:1;stroke:none;stroke-width:1.21864712;stroke-linecap:butt;stroke-linejoin:miter;stroke-miterlimit:4;stroke-dasharray:none;stroke-dashoffset:0;stroke-opacity:1;filter:url(#filter1653)"
       d="m 51.542926,279.97491 c 0,0 -3.840832,-0.8875 -2.448245,-0.0529 0.524424,1.02474 2.962737,3.95841 2.962737,3.95841 0,0 -1.403164,-1.80073 -1.613638,-2.78294 -0.210476,-0.98222 1.099146,-1.12254 1.099146,-1.12254"
       id="path1105"
       inkscape:connector-curvature="0"
       sodipodi:nodetypes="cccsc"
       transform="matrix(2.6348434,0,0,2.6348434,-85.987848,-489.20566)" />
  </g>
</svg>
